<svg xmlns="http://www.w3.org/2000/svg" width="21.482" height="21.522" viewBox="0 0 21.482 21.522">
  <path id="Icon_feather-phone" data-name="Icon feather-phone" d="M23.168,18v3.017a2.011,2.011,0,0,1-2.192,2.011A19.9,19.9,0,0,1,12.3,19.945a19.61,19.61,0,0,1-6.034-6.034A19.9,19.9,0,0,1,3.176,5.192,2.011,2.011,0,0,1,5.177,3H8.194a2.011,2.011,0,0,1,2.011,1.73,12.912,12.912,0,0,0,.7,2.826,2.011,2.011,0,0,1-.453,2.122L9.18,10.955a16.09,16.09,0,0,0,6.034,6.034l1.277-1.277a2.011,2.011,0,0,1,2.122-.453,12.912,12.912,0,0,0,2.826.7A2.011,2.011,0,0,1,23.168,18Z" transform="translate(-2.427 -2.26)" fill="none" stroke="#000" stroke-linecap="round" stroke-linejoin="round" stroke-width="1.48"/>
</svg>
